<svg width="226" height="227" viewBox="0 0 226 227" fill="none" xmlns="http://www.w3.org/2000/svg">
    <path fill-rule="evenodd" clip-rule="evenodd" d="M74.2047 47.3955L69.3072 52.3532C97.4826 89.9683 129.835 87.8641 158.155 52.2091L152.393 47.2802C143.548 55.6391 133.033 71.2616 113.27 71.1463C93.6221 71.031 82.8763 55.6968 74.2047 47.3955ZM113.155 123.202C117.62 123.202 121.25 119.57 121.25 115.103C121.25 110.635 117.62 107.032 113.155 107.032C108.689 107.032 105.059 110.635 105.059 115.103C105.059 119.57 108.689 123.202 113.155 123.202ZM180.05 76.6228C177.774 71.1175 180.251 73.6252 175.815 70.1087C136.346 97.2319 139.198 131.388 174.749 157.675L180.079 153.006C164.176 134.011 138.795 117.034 171.407 84.3476C176.276 79.5052 173.942 80.8887 180.05 76.6228ZM46.836 152.602L51.9928 158.627C87.1977 126.863 92.2969 100.114 51.1286 69.561C46.3462 72.7893 50.4948 69.8781 46.4615 73.6828C56.1126 85.7023 70.0274 90.5736 70.3155 113.402C70.5748 134.126 54.6721 142.889 46.836 152.602ZM76.279 180.446C99.3552 149.23 127.214 148.625 150.203 180.475C156.196 178.169 154.121 179.927 157.118 175.488C126.234 138.911 100.824 140.439 70.4307 175.402C73.9167 179.61 70.8917 176.699 76.279 180.446ZM20.7637 157.099C23.8462 163.037 25.69 162.864 29.6369 167.965C26.151 174.508 18.2285 178.025 16.2118 185.548C13.5326 195.492 18.2573 204.514 23.5294 208.031C41.0742 219.675 57.9852 199.383 63.3149 192.091C51.5031 174.826 34.5633 164.968 22.7227 150.844L11.5447 139.862C7.30976 135.308 2.35458 128.39 1.05817 119.686C-1.39062 103.314 7.19452 89.0171 21.1958 80.7735L29.925 90.66C24.0191 97.0301 13.158 104.005 15.9525 118.129C17.6523 126.747 30.2419 136.807 34.9954 141.793C102.985 94.6665 -25.5039 73.6252 5.17787 19.0329C22.0601 -10.915 50.61 2.11332 68.9326 20.6759L58.7342 31.2254C55.8245 29.0059 36.7528 3.87156 20.0434 23.6447C4.51526 42.0055 28.8302 56.648 34.6497 63.681C39.4896 61.1445 53.8942 46.2714 58.5613 41.6019C67.7515 32.4071 78.4109 21.0794 88.0908 13.0952C108.949 -4.14146 117.246 -0.596125 135.828 10.3569C138.334 11.8557 140.235 13.7293 142.166 16.1505C144.499 19.0905 143.635 16.9576 145.94 21.137L136.865 30.7642C130.239 25.7776 124.362 14.8823 110.389 16.6693C100.652 17.9087 89.0703 30.6489 85.6996 36.5001C92.4986 47.1361 111.196 65.2951 128.28 49.8167C150.78 29.4959 186.215 -24.9811 218.712 14.9399C234.874 34.7707 221.103 62.8162 204.797 69.561C201.369 64.8916 199.093 63.681 196.644 57.945C230.437 31.9459 196.788 6.63864 179.185 20.3876C175.498 23.27 166.02 33.5601 163.542 36.5001L210.357 84.6935C218.452 93.0524 227.124 98.3272 225.828 116.601C224.762 131.503 215.024 140.958 207.274 146.521C202.002 142.86 201.282 138.767 197.105 136.375C198.718 131.302 203.039 130.927 206.756 126.459C221.247 109.021 197.047 92.0436 192.207 86.077C155.62 112.739 176.823 127.987 194.973 146.117C211.279 162.345 230.379 175.575 225.021 199.556C222.111 212.729 210.357 224.431 195.203 226.045C175.095 228.15 166.279 215.755 158.097 207.281L167.662 197.279C172.675 201.66 177.659 208.751 185.351 210.654C195.924 213.305 204.336 208.607 207.879 202.756C219.23 183.992 197.998 170.704 190.882 163.613C176.506 179.091 159.048 196.126 142.483 210.855C134.157 218.263 128.078 227.602 109.899 226.132C96.6471 225.037 85.6132 213.478 80.7732 207.281L90.6548 196.76C111.686 221.117 124.592 210.654 140.725 191.918C135.684 180.85 115.719 160.097 95.2066 180.677C70.5172 205.408 53.4909 231.781 26.8712 225.267C7.28096 220.425 -18.1288 192.898 20.7637 157.099Z" fill="#f9f9f9"/>
    <path fill-rule="evenodd" clip-rule="evenodd" d="M113.098 200.047C113.127 200.047 113.127 200.047 113.156 200.047C114.625 200.047 115.893 199.701 117.189 198.952C118.457 198.231 119.408 197.28 120.128 196.012C120.877 194.714 121.223 193.446 121.223 191.976C121.223 190.477 120.877 189.209 120.128 187.912C119.408 186.644 118.457 185.693 117.189 184.972C115.893 184.223 114.625 183.877 113.156 183.877C111.658 183.877 110.39 184.223 109.094 184.972C107.826 185.693 106.876 186.644 106.155 187.912C105.406 189.209 105.061 190.477 105.061 191.976C105.061 193.446 105.406 194.714 106.155 196.012C106.876 197.28 107.826 198.231 109.094 198.952C110.39 199.701 111.629 200.047 113.098 200.047Z" fill="#f9f9f9"/>
    <path fill-rule="evenodd" clip-rule="evenodd" d="M113.096 199.84C111.665 199.84 110.462 199.504 109.195 198.772C107.96 198.07 107.035 197.145 106.333 195.909C105.602 194.643 105.266 193.409 105.266 191.976C105.266 190.514 105.601 189.282 106.333 188.016C107.034 186.78 107.959 185.854 109.194 185.152C110.46 184.421 111.693 184.084 113.154 184.084C114.586 184.084 115.818 184.42 117.084 185.151C118.319 185.853 119.244 186.778 119.946 188.014C120.677 189.28 121.014 190.514 121.014 191.976C121.014 193.409 120.678 194.642 119.947 195.908C119.245 197.144 118.32 198.069 117.085 198.772C115.819 199.503 114.586 199.84 113.154 199.84L113.096 199.84ZM108.989 199.131C110.315 199.898 111.589 200.254 113.096 200.254L113.154 200.254C114.66 200.254 115.963 199.898 117.29 199.131C118.59 198.392 119.567 197.415 120.305 196.114C121.072 194.787 121.428 193.483 121.428 191.976C121.428 190.441 121.072 189.137 120.305 187.809C119.567 186.509 118.59 185.531 117.29 184.792C115.963 184.026 114.66 183.67 113.154 183.67C111.619 183.67 110.316 184.025 108.989 184.792C107.689 185.531 106.712 186.509 105.974 187.809C105.207 189.137 104.852 190.441 104.852 191.976C104.852 193.483 105.207 194.787 105.974 196.114C106.712 197.415 107.689 198.392 108.989 199.131Z" fill="#f9f9f9"/>
    <path fill-rule="evenodd" clip-rule="evenodd" d="M35.2546 121.589C35.2834 121.589 35.2834 121.589 35.3122 121.589C36.7815 121.589 38.0491 121.243 39.3455 120.494C40.6131 119.773 41.5638 118.822 42.284 117.554C43.0331 116.256 43.3788 114.988 43.3788 113.518C43.3788 112.019 43.0331 110.751 42.284 109.454C41.5638 108.186 40.6131 107.235 39.3455 106.514C38.0491 105.765 36.7815 105.419 35.3122 105.419C33.8141 105.419 32.5465 105.765 31.2501 106.514C29.9825 107.235 29.0318 108.186 28.3115 109.454C27.5625 110.751 27.2168 112.019 27.2168 113.518C27.2168 114.988 27.5625 116.256 28.3115 117.554C29.0318 118.822 29.9825 119.773 31.2501 120.494C32.5465 121.243 33.7853 121.589 35.2546 121.589Z" fill="#f9f9f9"/>
    <path fill-rule="evenodd" clip-rule="evenodd" d="M35.2545 121.382C33.8234 121.382 32.6201 121.046 31.3537 120.314C30.1185 119.612 29.1933 118.687 28.4915 117.451C27.7602 116.185 27.4238 114.951 27.4238 113.518C27.4238 112.056 27.7596 110.824 28.4908 109.558C29.1926 108.322 30.1172 107.396 31.3524 106.694C32.6178 105.962 33.851 105.626 35.3122 105.626C36.7441 105.626 37.9761 105.962 39.2419 106.693C40.477 107.395 41.4022 108.32 42.104 109.556C42.8351 110.822 43.1717 112.056 43.1717 113.518C43.1717 114.951 42.8361 116.184 42.1047 117.45C41.4029 118.686 40.4783 119.611 39.2431 120.314C37.9774 121.045 36.7441 121.382 35.3122 121.382L35.2545 121.382ZM31.1471 120.673C32.4732 121.44 33.7474 121.796 35.2545 121.796L35.3118 121.796C36.8182 121.796 38.1215 121.44 39.4484 120.673C40.7479 119.934 41.7252 118.957 42.4636 117.656C43.2301 116.329 43.5858 115.025 43.5858 113.518C43.5858 111.983 43.2303 110.679 42.4637 109.351C41.7252 108.051 40.7479 107.073 39.4483 106.334C38.1215 105.568 36.8185 105.212 35.3122 105.212C33.7774 105.212 32.4743 105.567 31.1471 106.334C29.8476 107.073 28.8704 108.051 28.1319 109.351C27.3652 110.679 27.0098 111.983 27.0098 113.518C27.0098 115.025 27.3654 116.329 28.1319 117.656C28.8704 118.957 29.8476 119.934 31.1471 120.673Z" fill="#f9f9f9"/>
    <path fill-rule="evenodd" clip-rule="evenodd" d="M193.042 121.589C193.07 121.589 193.07 121.589 193.099 121.589C194.569 121.589 195.836 121.243 197.133 120.494C198.4 119.773 199.351 118.822 200.071 117.554C200.82 116.256 201.166 114.988 201.166 113.518C201.166 112.019 200.82 110.751 200.071 109.454C199.351 108.186 198.4 107.235 197.133 106.514C195.836 105.765 194.569 105.419 193.099 105.419C191.601 105.419 190.334 105.765 189.037 106.514C187.77 107.235 186.819 108.186 186.099 109.454C185.35 110.751 185.004 112.019 185.004 113.518C185.004 114.988 185.35 116.256 186.099 117.554C186.819 118.822 187.77 119.773 189.037 120.494C190.334 121.243 191.572 121.589 193.042 121.589Z" fill="#f9f9f9"/>
    <path fill-rule="evenodd" clip-rule="evenodd" d="M193.044 121.382C191.612 121.382 190.409 121.046 189.143 120.314C187.908 119.612 186.982 118.687 186.281 117.451C185.549 116.185 185.213 114.951 185.213 113.518C185.213 112.056 185.549 110.824 186.28 109.558C186.982 108.322 187.906 107.396 189.141 106.694C190.407 105.962 191.64 105.626 193.101 105.626C194.533 105.626 195.765 105.962 197.031 106.693C198.266 107.395 199.191 108.32 199.893 109.556C200.624 110.822 200.961 112.056 200.961 113.518C200.961 114.951 200.625 116.184 199.894 117.45C199.192 118.686 198.267 119.611 197.032 120.314C195.766 121.045 194.533 121.382 193.101 121.382L193.044 121.382ZM188.936 120.673C190.262 121.44 191.536 121.796 193.044 121.796L193.101 121.796C194.607 121.796 195.911 121.44 197.237 120.673C198.537 119.934 199.514 118.957 200.253 117.656C201.019 116.329 201.375 115.025 201.375 113.518C201.375 111.983 201.019 110.679 200.253 109.351C199.514 108.051 198.537 107.073 197.237 106.334C195.911 105.568 194.608 105.212 193.101 105.212C191.566 105.212 190.263 105.567 188.936 106.334C187.637 107.073 186.659 108.051 185.921 109.351C185.154 110.679 184.799 111.983 184.799 113.518C184.799 115.025 185.154 116.329 185.921 117.656C186.659 118.957 187.637 119.934 188.936 120.673Z" fill="#f9f9f9"/>
    <path fill-rule="evenodd" clip-rule="evenodd" d="M113.098 43.8506C113.127 43.8506 113.127 43.8506 113.156 43.8506C114.625 43.8506 115.893 43.5047 117.189 42.7553C118.457 42.0347 119.408 41.0835 120.128 39.8152C120.877 38.5182 121.223 37.2499 121.223 35.7799C121.223 34.2811 120.877 33.0128 120.128 31.7157C119.408 30.4475 118.457 29.4963 117.189 28.7757C115.893 28.0263 114.625 27.6804 113.156 27.6804C111.658 27.6804 110.39 28.0263 109.094 28.7757C107.826 29.4963 106.876 30.4475 106.155 31.7158C105.406 33.0128 105.061 34.2811 105.061 35.7799C105.061 37.2499 105.406 38.5182 106.155 39.8152C106.876 41.0835 107.826 42.0347 109.094 42.7553C110.39 43.5047 111.629 43.8506 113.098 43.8506Z" fill="#f9f9f9"/>
    <path fill-rule="evenodd" clip-rule="evenodd" d="M113.096 43.6436C111.665 43.6436 110.462 43.3082 109.195 42.5761C107.96 41.8739 107.035 40.9489 106.333 39.713C105.602 38.4466 105.266 37.2126 105.266 35.7799C105.266 34.318 105.601 33.0854 106.333 31.8193C107.034 30.5835 107.959 29.6579 109.194 28.9557C110.46 28.2242 111.693 27.8874 113.154 27.8874C114.586 27.8874 115.818 28.2233 117.084 28.955C118.319 29.6571 119.244 30.5822 119.946 31.818C120.677 33.0841 121.014 34.318 121.014 35.7799C121.014 37.2126 120.678 38.4453 119.947 39.7117C119.245 40.9476 118.32 41.8732 117.085 42.5753C115.819 43.307 114.586 43.6436 113.154 43.6436L113.096 43.6436ZM108.989 42.9349C110.315 43.7014 111.589 44.0576 113.096 44.0576L113.154 44.0576C114.66 44.0576 115.963 43.7018 117.29 42.9349C118.59 42.196 119.567 41.2183 120.305 39.9181C121.072 38.5906 121.428 37.287 121.428 35.7799C121.428 34.2444 121.072 32.9407 120.305 31.6129C119.567 30.3127 118.59 29.335 117.29 28.5961C115.963 27.8293 114.66 27.4734 113.154 27.4734C111.619 27.4734 110.316 27.8291 108.989 28.5961C107.689 29.335 106.712 30.3127 105.974 31.6129C105.207 32.9407 104.852 34.2444 104.852 35.7799C104.852 37.287 105.207 38.5907 105.974 39.9181C106.712 41.2183 107.689 42.196 108.989 42.9349Z" fill="#f9f9f9"/>
</svg>
