<svg width="162" height="162" viewBox="0 0 162 162" fill="none" xmlns="http://www.w3.org/2000/svg">
<g opacity="0.11">
    <path fill-rule="evenodd" clip-rule="evenodd" d="M108.932 128.386L112.447 124.829C92.2033 97.8083 68.9523 99.333 48.6236 124.913L52.774 128.471C59.1267 122.457 66.6653 111.234 80.8531 111.318C94.9985 111.403 102.706 122.457 108.932 128.386ZM80.9801 73.9644C77.7191 73.9644 75.1356 76.5902 75.1356 79.7666C75.1356 82.9853 77.7191 85.5687 80.9801 85.5687C84.1565 85.5687 86.7823 82.9853 86.7823 79.7666C86.7823 76.5902 84.1565 73.9644 80.9801 73.9644ZM32.9111 107.38C34.5629 111.361 32.7841 109.54 35.9605 112.081C64.2936 92.5991 62.2184 68.1199 36.7228 49.2311L32.9111 52.5769C44.3037 66.2141 62.5149 78.4113 39.1368 101.832C35.664 105.347 37.3157 104.33 32.9111 107.38ZM128.541 52.8733L124.856 48.5535C99.5725 71.3386 95.9302 90.5662 125.449 112.462C128.922 110.133 125.915 112.25 128.795 109.497C121.892 100.9 111.939 97.3848 111.727 81.0371C111.516 66.1294 122.908 59.8613 128.541 52.8733ZM107.45 32.8834C90.8904 55.2874 70.8158 55.7532 54.341 32.8834C50.0212 34.5351 51.5035 33.2646 49.3859 36.4409C71.5358 62.6989 89.7893 61.5977 111.643 36.5256C109.102 33.4763 111.304 35.5939 107.45 32.8834ZM147.26 49.6546C145.058 45.4195 143.745 45.5042 140.908 41.8619C143.406 37.1185 149.081 34.6198 150.521 29.1988C152.427 22.0838 149.081 15.604 145.27 13.1052C132.691 4.76197 120.579 19.2886 116.725 24.5401C125.195 36.9068 137.35 44.0219 145.863 54.1439L153.867 62.0213C156.916 65.2823 160.474 70.2375 161.406 76.5055C163.185 88.2369 157.001 98.5283 146.964 104.415L140.696 97.3424C144.931 92.7261 152.724 87.7286 150.733 77.6066C149.505 71.4233 140.484 64.2235 137.054 60.6237C88.2646 94.4625 180.506 109.54 158.441 148.715C146.329 170.229 125.83 160.87 112.701 147.571L120.028 139.99C122.104 141.6 135.783 159.599 147.769 145.454C158.907 132.24 141.458 121.737 137.308 116.697C133.835 118.476 123.459 129.191 120.155 132.537C113.548 139.143 105.883 147.275 98.9796 152.992C83.9871 165.359 77.9732 162.818 64.6748 154.941C62.8537 153.882 61.4561 152.527 60.1008 150.79C58.4491 148.673 59.042 150.197 57.3903 147.233L63.9125 140.329C68.6558 143.887 72.891 151.722 82.9707 150.409C89.9587 149.52 98.2596 140.414 100.674 136.179C95.8032 128.556 82.3777 115.511 70.0534 126.65C53.9175 141.219 28.5066 180.309 5.17088 151.679C-6.3911 137.449 3.47682 117.29 15.1658 112.462C17.6222 115.808 19.2739 116.697 21.0104 120.805C-3.21473 139.482 20.9257 157.609 33.5464 147.741C36.1722 145.708 42.9908 138.296 44.7696 136.179L11.1848 101.578C5.38264 95.606 -0.800691 91.8367 0.0886912 78.7078C0.851019 68.0352 7.83903 61.2589 13.3871 57.2779C17.1564 59.8613 17.7069 62.8259 20.6715 64.52C19.5281 68.1622 16.4364 68.4587 13.7682 71.6351C3.34976 84.1288 20.7139 96.326 24.1867 100.604C50.4447 81.4606 35.2405 70.5339 22.1962 57.532C10.5072 45.8853 -3.13003 36.3986 0.639261 19.1615C2.75684 9.7171 11.1848 1.3315 22.0268 0.188005C36.4687 -1.33665 42.779 7.55717 48.6659 13.6558L41.805 20.8132C38.2051 17.6792 34.6476 12.597 29.0995 11.1994C21.5186 9.33594 15.5047 12.6817 12.9636 16.8745C4.78971 30.3423 20.0363 39.8714 25.1608 44.9959C35.4946 33.8575 47.9883 21.6179 59.8891 11.0724C65.8606 5.77841 70.2229 -0.913135 83.3095 0.103302C92.7962 0.907982 100.758 9.20888 104.231 13.6558L97.1161 21.1944C82.0389 3.70318 72.7216 11.1994 61.1173 24.6672C64.7595 32.5869 79.0743 47.4947 93.855 32.714C111.558 14.9687 123.755 -3.92009 142.898 0.738575C156.959 4.2114 175.212 23.9472 147.26 49.6546Z" fill="white"/>
    <path fill-rule="evenodd" clip-rule="evenodd" d="M80.9812 18.8613H80.9389C79.8801 18.8613 78.9907 19.1154 78.059 19.6237C77.1272 20.1742 76.4496 20.8519 75.899 21.7836C75.3908 22.7153 75.1367 23.6047 75.1367 24.7058C75.1367 25.7646 75.3908 26.654 75.899 27.5857C76.4496 28.5175 77.1272 29.1951 78.059 29.7457C78.9907 30.2539 79.8801 30.508 80.9812 30.508C82.04 30.508 82.9294 30.2539 83.8611 29.7457C84.7929 29.1951 85.4705 28.5175 86.0211 27.5857C86.5293 26.654 86.7834 25.7646 86.7834 24.6635C86.7834 23.6047 86.5293 22.7153 86.0211 21.7836C85.4705 20.8519 84.7929 20.1742 83.8611 19.6237C82.9294 19.1154 82.04 18.8613 80.9389 18.8613H80.9812Z" fill="white"/>
    <path fill-rule="evenodd" clip-rule="evenodd" d="M80.9812 18.8613H80.9389C79.8801 18.8613 78.9907 19.1154 78.059 19.6237C77.1272 20.1742 76.4496 20.8519 75.899 21.7836C75.3908 22.7153 75.1367 23.6047 75.1367 24.7058C75.1367 25.7646 75.3908 26.654 75.899 27.5857C76.4496 28.5175 77.1272 29.1951 78.059 29.7457C78.9907 30.2539 79.8801 30.508 80.9812 30.508C82.04 30.508 82.9294 30.2539 83.8611 29.7457C84.7929 29.1951 85.4705 28.5175 86.0211 27.5857C86.5293 26.654 86.7834 25.7646 86.7834 24.6635C86.7834 23.6047 86.5293 22.7153 86.0211 21.7836C85.4705 20.8519 84.7929 20.1742 83.8611 19.6237C82.9294 19.1154 82.04 18.8613 80.9389 18.8613H80.9812Z" stroke="#B11D48" stroke-width="0.405288"/>
    <path fill-rule="evenodd" clip-rule="evenodd" d="M136.843 75.1484H136.8C135.741 75.1484 134.852 75.4025 133.92 75.9108C132.989 76.4613 132.311 77.139 131.76 78.0707C131.252 79.0024 130.998 79.8918 130.998 80.993C130.998 82.0517 131.252 82.9411 131.76 83.8729C132.311 84.8046 132.989 85.4822 133.92 86.0328C134.852 86.541 135.741 86.7951 136.843 86.7951C137.901 86.7951 138.791 86.541 139.722 86.0328C140.654 85.4822 141.332 84.8046 141.882 83.8729C142.391 82.9411 142.645 82.0517 142.645 80.9506C142.645 79.8918 142.391 79.0024 141.882 78.0707C141.332 77.139 140.654 76.4613 139.722 75.9108C138.791 75.4025 137.901 75.1484 136.8 75.1484H136.843Z" fill="white"/>
    <path fill-rule="evenodd" clip-rule="evenodd" d="M136.843 75.1484H136.8C135.741 75.1484 134.852 75.4025 133.92 75.9108C132.989 76.4613 132.311 77.139 131.76 78.0707C131.252 79.0024 130.998 79.8918 130.998 80.993C130.998 82.0517 131.252 82.9411 131.76 83.8729C132.311 84.8046 132.989 85.4822 133.92 86.0328C134.852 86.541 135.741 86.7951 136.843 86.7951C137.901 86.7951 138.791 86.541 139.722 86.0328C140.654 85.4822 141.332 84.8046 141.882 83.8729C142.391 82.9411 142.645 82.0517 142.645 80.9506C142.645 79.8918 142.391 79.0024 141.882 78.0707C141.332 77.139 140.654 76.4613 139.722 75.9108C138.791 75.4025 137.901 75.1484 136.8 75.1484H136.843Z" stroke="#B11D48" stroke-width="0.405288"/>
    <path fill-rule="evenodd" clip-rule="evenodd" d="M23.5906 75.1484H23.5483C22.4895 75.1484 21.6001 75.4025 20.6684 75.9108C19.7366 76.4613 19.059 77.139 18.5084 78.0707C18.0002 79.0024 17.7461 79.8918 17.7461 80.993C17.7461 82.0517 18.0002 82.9411 18.5084 83.8729C19.059 84.8046 19.7366 85.4822 20.6684 86.0328C21.6001 86.541 22.4895 86.7951 23.5906 86.7951C24.6494 86.7951 25.5388 86.541 26.4705 86.0328C27.4022 85.4822 28.0799 84.8046 28.6304 83.8729C29.1387 82.9411 29.3928 82.0517 29.3928 80.9506C29.3928 79.8918 29.1387 79.0024 28.6304 78.0707C28.0799 77.139 27.4022 76.4613 26.4705 75.9108C25.5388 75.4025 24.6494 75.1484 23.5483 75.1484H23.5906Z" fill="white"/>
    <path fill-rule="evenodd" clip-rule="evenodd" d="M23.5906 75.1484H23.5483C22.4895 75.1484 21.6001 75.4025 20.6684 75.9108C19.7366 76.4613 19.059 77.139 18.5084 78.0707C18.0002 79.0024 17.7461 79.8918 17.7461 80.993C17.7461 82.0517 18.0002 82.9411 18.5084 83.8729C19.059 84.8046 19.7366 85.4822 20.6684 86.0328C21.6001 86.541 22.4895 86.7951 23.5906 86.7951C24.6494 86.7951 25.5388 86.541 26.4705 86.0328C27.4022 85.4822 28.0799 84.8046 28.6304 83.8729C29.1387 82.9411 29.3928 82.0517 29.3928 80.9506C29.3928 79.8918 29.1387 79.0024 28.6304 78.0707C28.0799 77.139 27.4022 76.4613 26.4705 75.9108C25.5388 75.4025 24.6494 75.1484 23.5483 75.1484H23.5906Z" stroke="#B11D48" stroke-width="0.405288"/>
    <path fill-rule="evenodd" clip-rule="evenodd" d="M80.9812 130.925H80.9389C79.8801 130.925 78.9907 131.179 78.059 131.687C77.1272 132.238 76.4496 132.915 75.899 133.847C75.3908 134.779 75.1367 135.668 75.1367 136.769C75.1367 137.828 75.3908 138.717 75.899 139.649C76.4496 140.581 77.1272 141.259 78.059 141.809C78.9907 142.317 79.8801 142.571 80.9812 142.571C82.04 142.571 82.9294 142.317 83.8611 141.809C84.7929 141.259 85.4705 140.581 86.0211 139.649C86.5293 138.717 86.7834 137.828 86.7834 136.727C86.7834 135.668 86.5293 134.779 86.0211 133.847C85.4705 132.915 84.7929 132.238 83.8611 131.687C82.9294 131.179 82.04 130.925 80.9389 130.925H80.9812Z" fill="white"/>
    <path fill-rule="evenodd" clip-rule="evenodd" d="M80.9812 130.925H80.9389C79.8801 130.925 78.9907 131.179 78.059 131.687C77.1272 132.238 76.4496 132.915 75.899 133.847C75.3908 134.779 75.1367 135.668 75.1367 136.769C75.1367 137.828 75.3908 138.717 75.899 139.649C76.4496 140.581 77.1272 141.259 78.059 141.809C78.9907 142.317 79.8801 142.571 80.9812 142.571C82.04 142.571 82.9294 142.317 83.8611 141.809C84.7929 141.259 85.4705 140.581 86.0211 139.649C86.5293 138.717 86.7834 137.828 86.7834 136.727C86.7834 135.668 86.5293 134.779 86.0211 133.847C85.4705 132.915 84.7929 132.238 83.8611 131.687C82.9294 131.179 82.04 130.925 80.9389 130.925H80.9812Z" stroke="#B11D48" stroke-width="0.405288"/>
</g>
</svg>