<svg width="90" height="90" viewBox="0 0 90 90" fill="none" xmlns="http://www.w3.org/2000/svg">
    <g opacity="0.06">
        <path fill-rule="evenodd" clip-rule="evenodd" d="M60.5177 71.3254L62.4705 69.349C51.2239 54.3378 38.3067 55.1848 27.013 69.396L29.3188 71.3725C32.8481 68.0314 37.0362 61.7963 44.9182 61.8434C52.7768 61.8904 57.059 68.0314 60.5177 71.3254ZM44.9888 41.0912C43.1771 41.0912 41.7419 42.55 41.7419 44.3146C41.7419 46.1028 43.1771 47.538 44.9888 47.538C46.7535 47.538 48.2122 46.1028 48.2122 44.3146C48.2122 42.55 46.7535 41.0912 44.9888 41.0912ZM18.2839 59.6552C19.2015 61.8669 18.2133 60.8552 19.978 62.2669C35.7186 51.4438 34.5657 37.8443 20.4015 27.3505L18.2839 29.2093C24.6131 36.7855 34.7304 43.5617 21.7426 56.573C19.8133 58.5259 20.7309 57.9612 18.2839 59.6552ZM71.4114 29.374L69.3644 26.9741C55.3179 39.6324 53.2944 50.3144 69.6938 62.4787C71.6232 61.1846 69.9526 62.361 71.5526 60.8317C67.7174 56.0554 62.1882 54.1025 62.0706 45.0205C61.9529 36.7384 68.2821 33.2562 71.4114 29.374ZM59.6942 18.2685C50.4945 30.7151 39.342 30.9739 30.1894 18.2685C27.7894 19.1861 28.6129 18.4802 27.4365 20.2449C39.742 34.8326 49.8828 34.2209 62.0235 20.2919C60.6118 18.5979 61.8353 19.7743 59.6942 18.2685ZM81.811 27.5858C80.5875 25.2329 79.8581 25.28 78.2817 23.2565C79.6699 20.6213 82.8227 19.2332 83.6227 16.2215C84.6815 12.2687 82.8227 8.66884 80.7052 7.28066C73.7172 2.64553 66.988 10.7158 64.8469 13.6334C69.5526 20.5037 76.3053 24.4565 81.0346 30.0798L85.4815 34.4561C87.1755 36.2678 89.1519 39.0207 89.6696 42.5029C90.6578 49.0203 87.2226 54.7378 81.6463 58.0082L78.1641 54.079C80.5169 51.5143 84.8462 48.738 83.7404 43.1147C83.058 39.6795 78.0464 35.6796 76.1406 33.6797C49.0357 52.479 100.281 60.8552 88.0226 82.6191C81.2934 94.5716 69.9056 89.3718 62.6117 81.9838L66.6822 77.7722C67.8351 78.6663 75.4348 88.6659 82.0934 80.8074C88.2814 73.4665 78.5876 67.6314 76.2818 64.8315C74.3525 65.8197 68.588 71.7724 66.7527 73.6312C63.0823 77.3016 58.8236 81.8191 54.9885 84.9955C46.6594 91.8658 43.3183 90.4541 35.9303 86.0778C34.9186 85.4896 34.1422 84.7367 33.3892 83.772C32.4716 82.5956 32.801 83.4426 31.8834 81.7956L35.5068 77.9604C38.142 79.9368 40.4949 84.2896 46.0947 83.5602C49.9769 83.0661 54.5885 78.0075 55.9296 75.6546C53.2238 71.4195 45.7653 64.1727 38.9184 70.3607C29.9541 78.4545 15.8369 100.171 2.8727 84.2661C-3.5506 76.3605 1.93156 65.1609 8.42544 62.4787C9.7901 64.3374 10.7077 64.8315 11.6724 67.1138C-1.78595 77.4899 11.6253 87.5601 18.6368 82.0779C20.0956 80.9486 23.8837 76.8311 24.8719 75.6546L6.21376 56.4318C2.99034 53.1143 -0.444827 51.0202 0.0492727 43.7264C0.472787 37.7972 4.355 34.0326 7.43724 31.8209C9.53128 33.2562 9.83715 34.9032 11.4842 35.8443C10.8489 37.8678 9.1313 38.0325 7.649 39.7971C1.86097 46.738 11.5077 53.5143 13.437 55.8907C28.0247 45.2557 19.578 39.1854 12.3312 31.9621C5.8373 25.4918 -1.7389 20.2214 0.355144 10.6452C1.53157 5.39837 6.21376 0.739718 12.2371 0.104447C20.2603 -0.742581 23.7661 4.19842 27.0365 7.58653L23.2249 11.5629C21.225 9.82174 19.2486 6.99831 16.1663 6.22187C11.9547 5.18661 8.61367 7.04537 7.20195 9.3747C2.66094 16.8568 11.1312 22.1507 13.9782 24.9977C19.7191 18.8097 26.6601 12.0099 33.2716 6.15129C36.5891 3.21022 39.0126 -0.507295 46.2829 0.05739C51.5533 0.504433 55.9767 5.11603 57.906 7.58653L53.9532 11.7746C45.577 2.05732 40.4007 6.22187 33.9539 13.704C35.9774 18.1038 43.93 26.3858 52.1415 18.1744C61.9764 8.31591 68.7527 -2.17782 79.3876 0.410318C87.1991 2.33966 97.3399 13.304 81.811 27.5858Z" fill="white"/>
        <path fill-rule="evenodd" clip-rule="evenodd" d="M44.9891 10.4795H44.9656C44.3774 10.4795 43.8833 10.6207 43.3657 10.903C42.848 11.2089 42.4716 11.5853 42.1657 12.103C41.8834 12.6206 41.7422 13.1147 41.7422 13.7264C41.7422 14.3146 41.8834 14.8087 42.1657 15.3264C42.4716 15.844 42.848 16.2205 43.3657 16.5263C43.8833 16.8087 44.3774 16.9498 44.9891 16.9498C45.5773 16.9498 46.0714 16.8087 46.5891 16.5263C47.1067 16.2205 47.4832 15.844 47.789 15.3264C48.0714 14.8087 48.2125 14.3146 48.2125 13.7029C48.2125 13.1147 48.0714 12.6206 47.789 12.103C47.4832 11.5853 47.1067 11.2089 46.5891 10.903C46.0714 10.6207 45.5773 10.4795 44.9656 10.4795H44.9891Z" fill="white"/>
        <path fill-rule="evenodd" clip-rule="evenodd" d="M44.9891 10.4795H44.9656C44.3774 10.4795 43.8833 10.6207 43.3657 10.903C42.848 11.2089 42.4716 11.5853 42.1657 12.103C41.8834 12.6206 41.7422 13.1147 41.7422 13.7264C41.7422 14.3146 41.8834 14.8087 42.1657 15.3264C42.4716 15.844 42.848 16.2205 43.3657 16.5263C43.8833 16.8087 44.3774 16.9498 44.9891 16.9498C45.5773 16.9498 46.0714 16.8087 46.5891 16.5263C47.1067 16.2205 47.4832 15.844 47.789 15.3264C48.0714 14.8087 48.2125 14.3146 48.2125 13.7029C48.2125 13.1147 48.0714 12.6206 47.789 12.103C47.4832 11.5853 47.1067 11.2089 46.5891 10.903C46.0714 10.6207 45.5773 10.4795 44.9656 10.4795H44.9891Z" stroke="#B11D48" stroke-width="0.240171"/>
        <path fill-rule="evenodd" clip-rule="evenodd" d="M76.0243 41.751H76.0008C75.4125 41.751 74.9184 41.8921 74.4008 42.1745C73.8832 42.4804 73.5067 42.8568 73.2009 43.3744C72.9185 43.8921 72.7773 44.3862 72.7773 44.9979C72.7773 45.5861 72.9185 46.0802 73.2009 46.5979C73.5067 47.1155 73.8832 47.4919 74.4008 47.7978C74.9184 48.0802 75.4125 48.2213 76.0243 48.2213C76.6125 48.2213 77.1066 48.0802 77.6242 47.7978C78.1419 47.4919 78.5183 47.1155 78.8242 46.5979C79.1065 46.0802 79.2477 45.5861 79.2477 44.9744C79.2477 44.3862 79.1065 43.8921 78.8242 43.3744C78.5183 42.8568 78.1419 42.4804 77.6242 42.1745C77.1066 41.8921 76.6125 41.751 76.0008 41.751H76.0243Z" fill="white"/>
        <path fill-rule="evenodd" clip-rule="evenodd" d="M76.0243 41.751H76.0008C75.4125 41.751 74.9184 41.8921 74.4008 42.1745C73.8832 42.4804 73.5067 42.8568 73.2009 43.3744C72.9185 43.8921 72.7773 44.3862 72.7773 44.9979C72.7773 45.5861 72.9185 46.0802 73.2009 46.5979C73.5067 47.1155 73.8832 47.4919 74.4008 47.7978C74.9184 48.0802 75.4125 48.2213 76.0243 48.2213C76.6125 48.2213 77.1066 48.0802 77.6242 47.7978C78.1419 47.4919 78.5183 47.1155 78.8242 46.5979C79.1065 46.0802 79.2477 45.5861 79.2477 44.9744C79.2477 44.3862 79.1065 43.8921 78.8242 43.3744C78.5183 42.8568 78.1419 42.4804 77.6242 42.1745C77.1066 41.8921 76.6125 41.751 76.0008 41.751H76.0243Z" stroke="#B11D48" stroke-width="0.240171"/>
        <path fill-rule="evenodd" clip-rule="evenodd" d="M13.1063 41.75H13.0828C12.4946 41.75 12.0005 41.8912 11.4828 42.1735C10.9652 42.4794 10.5888 42.8558 10.2829 43.3735C10.0005 43.8911 9.85938 44.3852 9.85938 44.9969C9.85938 45.5852 10.0005 46.0793 10.2829 46.5969C10.5888 47.1145 10.9652 47.491 11.4828 47.7968C12.0005 48.0792 12.4946 48.2204 13.1063 48.2204C13.6945 48.2204 14.1886 48.0792 14.7063 47.7968C15.2239 47.491 15.6003 47.1145 15.9062 46.5969C16.1886 46.0793 16.3297 45.5852 16.3297 44.9734C16.3297 44.3852 16.1886 43.8911 15.9062 43.3735C15.6003 42.8558 15.2239 42.4794 14.7063 42.1735C14.1886 41.8912 13.6945 41.75 13.0828 41.75H13.1063Z" fill="white"/>
        <path fill-rule="evenodd" clip-rule="evenodd" d="M13.1063 41.75H13.0828C12.4946 41.75 12.0005 41.8912 11.4828 42.1735C10.9652 42.4794 10.5888 42.8558 10.2829 43.3735C10.0005 43.8911 9.85938 44.3852 9.85938 44.9969C9.85938 45.5852 10.0005 46.0793 10.2829 46.5969C10.5888 47.1145 10.9652 47.491 11.4828 47.7968C12.0005 48.0792 12.4946 48.2204 13.1063 48.2204C13.6945 48.2204 14.1886 48.0792 14.7063 47.7968C15.2239 47.491 15.6003 47.1145 15.9062 46.5969C16.1886 46.0793 16.3297 45.5852 16.3297 44.9734C16.3297 44.3852 16.1886 43.8911 15.9062 43.3735C15.6003 42.8558 15.2239 42.4794 14.7063 42.1735C14.1886 41.8912 13.6945 41.75 13.0828 41.75H13.1063Z" stroke="#B11D48" stroke-width="0.240171"/>
        <path fill-rule="evenodd" clip-rule="evenodd" d="M44.9891 72.7334H44.9656C44.3774 72.7334 43.8833 72.8746 43.3657 73.1569C42.848 73.4628 42.4716 73.8392 42.1657 74.3569C41.8834 74.8745 41.7422 75.3686 41.7422 75.9803C41.7422 76.5686 41.8834 77.0627 42.1657 77.5803C42.4716 78.0979 42.848 78.4744 43.3657 78.7802C43.8833 79.0626 44.3774 79.2038 44.9891 79.2038C45.5773 79.2038 46.0714 79.0626 46.5891 78.7802C47.1067 78.4744 47.4832 78.0979 47.789 77.5803C48.0714 77.0627 48.2125 76.5686 48.2125 75.9568C48.2125 75.3686 48.0714 74.8745 47.789 74.3569C47.4832 73.8392 47.1067 73.4628 46.5891 73.1569C46.0714 72.8746 45.5773 72.7334 44.9656 72.7334H44.9891Z" fill="white"/>
        <path fill-rule="evenodd" clip-rule="evenodd" d="M44.9891 72.7334H44.9656C44.3774 72.7334 43.8833 72.8746 43.3657 73.1569C42.848 73.4628 42.4716 73.8392 42.1657 74.3569C41.8834 74.8745 41.7422 75.3686 41.7422 75.9803C41.7422 76.5686 41.8834 77.0627 42.1657 77.5803C42.4716 78.0979 42.848 78.4744 43.3657 78.7802C43.8833 79.0626 44.3774 79.2038 44.9891 79.2038C45.5773 79.2038 46.0714 79.0626 46.5891 78.7802C47.1067 78.4744 47.4832 78.0979 47.789 77.5803C48.0714 77.0627 48.2125 76.5686 48.2125 75.9568C48.2125 75.3686 48.0714 74.8745 47.789 74.3569C47.4832 73.8392 47.1067 73.4628 46.5891 73.1569C46.0714 72.8746 45.5773 72.7334 44.9656 72.7334H44.9891Z" stroke="#B11D48" stroke-width="0.240171"/>
    </g>
</svg>