<svg width="32" height="32" viewBox="0 0 32 32" fill="none" xmlns="http://www.w3.org/2000/svg">
    <path d="M31.6082 29.7273L23.9151 22.0343C25.822 19.7094 26.9714 16.7314 26.9714 13.4857C26.9714 6.04082 20.9306 0 13.4857 0C6.03429 0 0 6.04082 0 13.4857C0 20.9306 6.03429 26.9714 13.4857 26.9714C16.7314 26.9714 19.7029 25.8286 22.0278 23.9216L29.7208 31.6082C30.2433 32.1306 31.0857 32.1306 31.6082 31.6082C32.1306 31.0922 32.1306 30.2433 31.6082 29.7273ZM13.4857 24.2873C7.52326 24.2873 2.67755 19.4416 2.67755 13.4857C2.67755 7.5298 7.52326 2.67755 13.4857 2.67755C19.4416 2.67755 24.2939 7.5298 24.2939 13.4857C24.2939 19.4416 19.4416 24.2873 13.4857 24.2873Z" fill="#2C7A84"/>
</svg>