<svg width="236" height="235" viewBox="0 0 236 235" fill="none" xmlns="http://www.w3.org/2000/svg">
    <g opacity="0.07">
        <path fill-rule="evenodd" clip-rule="evenodd" d="M158.555 186.271L163.656 181.109C134.283 141.906 100.547 144.118 71.0505 181.232L77.0726 186.393C86.2901 177.668 97.2282 161.385 117.814 161.508C138.338 161.631 149.522 177.668 158.555 186.271ZM117.998 107.312C113.267 107.312 109.518 111.122 109.518 115.73C109.518 120.4 113.267 124.148 117.998 124.148C122.607 124.148 126.417 120.4 126.417 115.73C126.417 111.122 122.607 107.312 117.998 107.312ZM48.2525 155.793C50.6491 161.569 48.0682 158.927 52.6769 162.614C93.787 134.348 90.776 98.8325 53.783 71.4275L48.2525 76.2818C64.7826 96.0674 91.2061 113.764 57.2857 147.744C52.2468 152.844 54.6433 151.369 48.2525 155.793ZM187.007 76.7119L181.661 70.4444C144.975 103.502 139.69 131.399 182.521 163.167C187.56 159.787 183.197 162.859 187.376 158.865C177.359 146.392 162.918 141.292 162.611 117.574C162.304 95.9445 178.834 86.8505 187.007 76.7119ZM156.405 47.7093C132.378 80.2143 103.25 80.8902 79.3462 47.7093C73.0783 50.1057 75.2291 48.2623 72.1566 52.8707C104.295 90.9674 130.78 89.3698 162.488 52.9936C158.801 48.5695 161.997 51.6418 156.405 47.7093ZM214.168 72.042C210.972 65.8973 209.067 66.0202 204.95 60.7359C208.576 53.8539 216.81 50.2285 218.899 42.3634C221.665 32.0405 216.81 22.6392 211.28 19.0139C193.029 6.90896 175.454 27.985 169.862 35.6044C182.152 53.5466 199.788 63.8696 212.14 78.5553L223.754 89.9843C228.178 94.7156 233.34 101.905 234.692 110.999C237.273 128.019 228.301 142.951 213.738 151.492L204.643 141.23C210.788 134.533 222.095 127.282 219.207 112.596C217.425 103.625 204.336 93.1795 199.358 87.9565C128.568 137.052 262.406 158.927 230.391 215.765C212.816 246.979 183.074 233.4 164.024 214.106L174.655 203.107C177.666 205.442 197.515 231.556 214.905 211.033C231.067 191.862 205.749 176.623 199.727 169.311C194.688 171.892 179.633 187.438 174.84 192.292C165.253 201.878 154.131 213.676 144.115 221.971C122.361 239.913 113.635 236.226 94.3401 224.797C91.6977 223.261 89.6699 221.295 87.7035 218.776C85.3069 215.703 86.1672 217.915 83.7707 213.614L93.234 203.598C100.116 208.76 106.261 220.127 120.887 218.223C131.026 216.932 143.07 203.721 146.573 197.577C139.506 186.516 120.026 167.591 102.144 183.751C78.7317 204.889 41.8617 261.604 8.0027 220.066C-8.77318 199.42 5.54469 170.172 22.5049 163.167C26.069 168.021 28.4656 169.311 30.985 175.272C-4.16442 202.369 30.8621 228.668 49.1743 214.351C52.9842 211.402 62.8776 200.649 65.4585 197.577L16.7286 147.375C8.30995 138.711 -0.661765 133.242 0.628687 114.194C1.73479 98.7096 11.8741 88.8782 19.924 83.1023C25.3931 86.8505 26.1919 91.1517 30.4934 93.6096C28.8343 98.894 24.3484 99.3241 20.4771 103.933C5.36034 122.059 30.5549 139.756 35.5938 145.962C73.6928 118.188 51.6323 102.335 32.7056 83.471C15.7454 66.5732 -4.04152 52.8093 1.42754 27.8007C4.50004 14.0982 16.7286 1.93182 32.4598 0.27277C53.4143 -1.93929 62.5704 10.9644 71.1119 19.8127L61.157 30.1971C55.9338 25.6501 50.772 18.2765 42.722 16.2488C31.7224 13.5452 22.9965 18.3994 19.3095 24.4826C7.44965 44.0225 29.5717 57.8479 37.0071 65.2829C52.001 49.1225 70.1287 31.3646 87.3962 16.0644C96.0607 8.38367 102.39 -1.32483 121.378 0.149877C135.143 1.31736 146.696 13.3608 151.734 19.8127L141.411 30.7501C119.535 5.37281 106.016 16.2488 89.1783 35.7887C94.463 47.2791 115.233 68.9082 136.679 47.4635C162.365 21.7175 180.063 -5.68751 207.838 1.07157C228.24 6.11016 254.725 34.7441 214.168 72.042Z" fill="white"/>
        <path fill-rule="evenodd" clip-rule="evenodd" d="M118 27.3691H117.938C116.402 27.3691 115.111 27.7378 113.76 28.4752C112.408 29.274 111.424 30.2571 110.626 31.6089C109.888 32.9607 109.52 34.2511 109.52 35.8487C109.52 37.3849 109.888 38.6752 110.626 40.0271C111.424 41.3789 112.408 42.362 113.76 43.1608C115.111 43.8982 116.402 44.2668 118 44.2668C119.536 44.2668 120.826 43.8982 122.178 43.1608C123.53 42.362 124.513 41.3789 125.312 40.0271C126.05 38.6752 126.418 37.3849 126.418 35.7873C126.418 34.2511 126.05 32.9607 125.312 31.6089C124.513 30.2571 123.53 29.274 122.178 28.4752C120.826 27.7378 119.536 27.3691 117.938 27.3691H118Z" fill="white"/>
        <path fill-rule="evenodd" clip-rule="evenodd" d="M118 27.3691H117.938C116.402 27.3691 115.111 27.7378 113.76 28.4752C112.408 29.274 111.424 30.2571 110.626 31.6089C109.888 32.9607 109.52 34.2511 109.52 35.8487C109.52 37.3849 109.888 38.6752 110.626 40.0271C111.424 41.3789 112.408 42.362 113.76 43.1608C115.111 43.8982 116.402 44.2669 118 44.2669C119.536 44.2669 120.826 43.8982 122.178 43.1608C123.53 42.362 124.513 41.3789 125.312 40.0271C126.05 38.6752 126.418 37.3849 126.418 35.7873C126.418 34.2511 126.05 32.9607 125.312 31.6089C124.513 30.2571 123.53 29.274 122.178 28.4752C120.826 27.7378 119.536 27.3691 117.938 27.3691H118Z" stroke="white" stroke-width="0.1595"/>
        <path fill-rule="evenodd" clip-rule="evenodd" d="M199.051 109.03H198.99C197.454 109.03 196.163 109.399 194.811 110.136C193.459 110.935 192.476 111.918 191.677 113.27C190.94 114.622 190.571 115.912 190.571 117.51C190.571 119.046 190.94 120.336 191.677 121.688C192.476 123.04 193.459 124.023 194.811 124.822C196.163 125.559 197.454 125.928 199.051 125.928C200.588 125.928 201.878 125.559 203.23 124.822C204.582 124.023 205.565 123.04 206.364 121.688C207.101 120.336 207.47 119.046 207.47 117.448C207.47 115.912 207.101 114.622 206.364 113.27C205.565 111.918 204.582 110.935 203.23 110.136C201.878 109.399 200.588 109.03 198.99 109.03H199.051Z" fill="white"/>
        <path fill-rule="evenodd" clip-rule="evenodd" d="M199.051 109.03H198.99C197.454 109.03 196.163 109.399 194.811 110.136C193.459 110.935 192.476 111.918 191.677 113.27C190.94 114.622 190.571 115.912 190.571 117.51C190.571 119.046 190.94 120.336 191.677 121.688C192.476 123.04 193.459 124.023 194.811 124.822C196.163 125.559 197.454 125.928 199.051 125.928C200.588 125.928 201.878 125.559 203.23 124.822C204.582 124.023 205.565 123.04 206.364 121.688C207.101 120.336 207.47 119.046 207.47 117.448C207.47 115.912 207.101 114.622 206.364 113.27C205.565 111.918 204.582 110.935 203.23 110.136C201.878 109.399 200.588 109.03 198.99 109.03H199.051Z" stroke="white" stroke-width="0.1595"/>
        <path fill-rule="evenodd" clip-rule="evenodd" d="M34.7291 109.03H34.6677C33.1314 109.03 31.841 109.399 30.4891 110.136C29.1372 110.935 28.154 111.918 27.3551 113.27C26.6177 114.622 26.249 115.912 26.249 117.51C26.249 119.046 26.6177 120.336 27.3551 121.688C28.154 123.04 29.1372 124.023 30.4891 124.822C31.841 125.559 33.1314 125.928 34.7291 125.928C36.2654 125.928 37.5558 125.559 38.9077 124.822C40.2596 124.023 41.2428 123.04 42.0417 121.688C42.7791 120.336 43.1478 119.046 43.1478 117.448C43.1478 115.912 42.7791 114.622 42.0417 113.27C41.2428 111.918 40.2596 110.935 38.9077 110.136C37.5558 109.399 36.2654 109.03 34.6677 109.03H34.7291Z" fill="white"/>
        <path fill-rule="evenodd" clip-rule="evenodd" d="M34.7291 109.03H34.6677C33.1314 109.03 31.841 109.399 30.4891 110.136C29.1372 110.935 28.154 111.918 27.3551 113.27C26.6177 114.622 26.249 115.912 26.249 117.51C26.249 119.046 26.6177 120.336 27.3551 121.688C28.154 123.04 29.1372 124.023 30.4891 124.822C31.841 125.559 33.1314 125.928 34.7291 125.928C36.2654 125.928 37.5558 125.559 38.9077 124.822C40.2596 124.023 41.2428 123.04 42.0417 121.688C42.7791 120.336 43.1478 119.046 43.1478 117.448C43.1478 115.912 42.7791 114.622 42.0417 113.27C41.2428 111.918 40.2596 110.935 38.9077 110.136C37.5558 109.399 36.2654 109.03 34.6677 109.03H34.7291Z" stroke="white" stroke-width="0.1595"/>
        <path fill-rule="evenodd" clip-rule="evenodd" d="M118 189.955H117.938C116.402 189.955 115.111 190.324 113.76 191.061C112.408 191.86 111.424 192.843 110.626 194.195C109.888 195.547 109.52 196.837 109.52 198.435C109.52 199.971 109.888 201.261 110.626 202.613C111.424 203.965 112.408 204.948 113.76 205.747C115.111 206.484 116.402 206.853 118 206.853C119.536 206.853 120.826 206.484 122.178 205.747C123.53 204.948 124.513 203.965 125.312 202.613C126.05 201.261 126.418 199.971 126.418 198.373C126.418 196.837 126.05 195.547 125.312 194.195C124.513 192.843 123.53 191.86 122.178 191.061C120.826 190.324 119.536 189.955 117.938 189.955H118Z" fill="white"/>
        <path fill-rule="evenodd" clip-rule="evenodd" d="M118 189.955H117.938C116.402 189.955 115.111 190.324 113.76 191.061C112.408 191.86 111.424 192.843 110.626 194.195C109.888 195.547 109.52 196.837 109.52 198.435C109.52 199.971 109.888 201.261 110.626 202.613C111.424 203.965 112.408 204.948 113.76 205.747C115.111 206.484 116.402 206.853 118 206.853C119.536 206.853 120.826 206.484 122.178 205.747C123.53 204.948 124.513 203.965 125.312 202.613C126.05 201.261 126.418 199.971 126.418 198.373C126.418 196.837 126.05 195.547 125.312 194.195C124.513 192.843 123.53 191.86 122.178 191.061C120.826 190.324 119.536 189.955 117.938 189.955H118Z" stroke="white" stroke-width="0.1595"/>
    </g>
</svg>