<svg width="15" height="24" viewBox="0 0 15 24" fill="none" xmlns="http://www.w3.org/2000/svg">
    <path d="M9.79596 17.4408L13.3826 20.9033C14.1174 21.6111 14.1174 22.7606 13.3826 23.4691C12.6486 24.1776 11.459 24.1776 10.7257 23.4691L7.19934 20.0666L3.67602 23.4691C3.30864 23.823 2.82724 24.0001 2.34584 24.0001C1.86522 24.0001 1.38459 23.823 1.01721 23.4691C0.283213 22.7606 0.283213 21.6118 1.01644 20.9033L4.60349 17.4408C3.2975 17.1536 2.03797 16.6541 0.877856 15.9515C-9.67979e-05 15.4171 -0.263828 14.2977 0.289355 13.4495C0.841002 12.6001 2.00111 12.3444 2.8806 12.8788C5.50716 14.4737 8.89075 14.4741 11.5189 12.8788C12.3983 12.3444 13.5581 12.6001 14.1109 13.4495C14.664 14.2969 14.3995 15.4171 13.5216 15.9515C12.3615 16.6548 11.1019 17.1536 9.79596 17.4408Z" fill="#fff"/>
    <path fill-rule="evenodd" clip-rule="evenodd" d="M0.767578 6.19358C0.767578 9.60795 3.6452 12.3853 7.1835 12.3853C10.7226 12.3853 13.5994 9.60795 13.5994 6.19358C13.5994 2.77811 10.7226 0 7.1835 0C3.6452 0 0.767578 2.77811 0.767578 6.19358ZM9.84001 6.19358C9.84001 4.77952 8.64842 3.62966 7.1835 3.62966C5.71974 3.62966 4.527 4.77952 4.527 6.19358C4.527 7.60654 5.71974 8.75713 7.1835 8.75713C8.64842 8.75713 9.84001 7.60654 9.84001 6.19358Z" fill="#fff"/>
</svg>
