<svg width="26" height="15" viewBox="0 0 26 15" fill="none" xmlns="http://www.w3.org/2000/svg">
    <path d="M14.0555 14.2761C14.0555 14.2761 14.5175 14.2257 14.7541 13.9762C14.9707 13.7476 14.9632 13.3162 14.9632 13.3162C14.9632 13.3162 14.9344 11.3018 15.8873 11.0043C16.8264 10.7118 18.0321 12.9524 19.3118 13.814C20.2784 14.4654 21.0121 14.3228 21.0121 14.3228L24.4316 14.2761C24.4316 14.2761 26.2196 14.1679 25.3719 12.7877C25.3018 12.6746 24.8773 11.7664 22.8302 9.90065C20.6853 7.94768 20.9733 8.26355 23.5551 4.88488C25.1278 2.82744 25.7563 1.57135 25.5597 1.03425C25.3732 0.520507 24.2162 0.656932 24.2162 0.656932L20.3673 0.680284C20.3673 0.680284 20.0818 0.642183 19.8702 0.766318C19.6636 0.887994 19.5296 1.17191 19.5296 1.17191C19.5296 1.17191 18.9211 2.76353 18.1085 4.11795C16.3944 6.97427 15.7095 7.12544 15.429 6.94846C14.7767 6.53427 14.9394 5.28678 14.9394 4.40063C14.9394 1.63157 15.3677 0.47749 14.1068 0.17883C13.6886 0.0792765 13.3806 0.0141367 12.31 0.00307514C10.9365 -0.0104445 9.77454 0.00799137 9.11594 0.323858C8.67771 0.534027 8.33964 1.00353 8.54624 1.03056C8.80041 1.06375 9.37638 1.18297 9.68189 1.59101C10.0763 2.11828 10.0625 3.30063 10.0625 3.30063C10.0625 3.30063 10.2892 6.56008 9.53289 6.96444C9.01452 7.2422 8.30333 6.67561 6.77452 4.08353C5.99196 2.75616 5.40097 1.28867 5.40097 1.28867C5.40097 1.28867 5.28703 1.01459 5.08294 0.8671C4.83627 0.688887 4.49195 0.63358 4.49195 0.63358L0.834571 0.656932C0.834571 0.656932 0.2849 0.671681 0.0833125 0.90643C-0.0957374 1.11414 0.0695394 1.54554 0.0695394 1.54554C0.0695394 1.54554 2.93309 8.12221 6.17602 11.437C9.14975 14.4752 12.5254 14.2761 12.5254 14.2761H14.0555Z" fill="#FFF"/>
</svg>