<svg width="227" height="227" viewBox="0 0 227 227" fill="none" xmlns="http://www.w3.org/2000/svg">
    <path fill-rule="evenodd" clip-rule="evenodd"
          d="M74.5602 47.3955L69.6626 52.3532C97.838 89.9683 130.191 87.8641 158.51 52.2091L152.748 47.2802C143.904 55.6391 133.389 71.2616 113.625 71.1463C93.9776 71.031 83.2318 55.6968 74.5602 47.3955ZM113.51 123.202C117.976 123.202 121.606 119.57 121.606 115.103C121.606 110.635 117.976 107.032 113.51 107.032C109.045 107.032 105.415 110.635 105.415 115.103C105.415 119.57 109.045 123.202 113.51 123.202ZM180.405 76.6228C178.129 71.1175 180.607 73.6252 176.17 70.1087C136.702 97.2319 139.554 131.388 175.104 157.675L180.434 153.006C164.531 134.011 139.15 117.034 171.762 84.3476C176.631 79.5052 174.298 80.8887 180.405 76.6228ZM47.1915 152.602L52.3483 158.627C87.5532 126.863 92.6524 100.114 51.484 69.561C46.7017 72.7893 50.8502 69.8781 46.8169 73.6828C56.468 85.7023 70.3829 90.5736 70.671 113.402C70.9302 134.126 55.0276 142.889 47.1915 152.602ZM76.6345 180.446C99.7106 149.23 127.569 148.625 150.559 180.475C156.551 178.169 154.477 179.927 157.473 175.488C126.59 138.911 101.18 140.439 70.7862 175.402C74.2721 179.61 71.2472 176.699 76.6345 180.446ZM21.1191 157.099C24.2017 163.037 26.0455 162.864 29.9924 167.965C26.5065 174.508 18.5839 178.025 16.5673 185.548C13.888 195.492 18.6127 204.514 23.8848 208.031C41.4296 219.675 58.3406 199.383 63.6703 192.091C51.8586 174.826 34.9187 164.968 23.0782 150.844L11.9002 139.862C7.66523 135.308 2.71005 128.39 1.41363 119.686C-1.03515 103.314 7.54999 89.0171 21.5513 80.7735L30.2805 90.66C24.3746 97.0301 13.5135 104.005 16.308 118.129C18.0077 126.747 30.5974 136.807 35.3509 141.793C103.341 94.6665 -25.1485 73.6252 5.53334 19.0329C22.4155 -10.915 50.9655 2.11332 69.2881 20.6759L59.0897 31.2254C56.1799 29.0059 37.1082 3.87156 20.3989 23.6447C4.87073 42.0055 29.1857 56.648 35.0052 63.681C39.8451 61.1445 54.2497 46.2714 58.9168 41.6019C68.1069 32.4071 78.7663 21.0794 88.4462 13.0952C109.304 -4.14146 117.601 -0.596125 136.183 10.3569C138.689 11.8557 140.591 13.7293 142.521 16.1505C144.855 19.0905 143.99 16.9576 146.295 21.137L137.22 30.7642C130.594 25.7776 124.717 14.8823 110.745 16.6693C101.007 17.9087 89.4257 30.6489 86.0551 36.5001C92.854 47.1361 111.551 65.2951 128.635 49.8167C151.135 29.4959 186.57 -24.9811 219.067 14.9399C235.229 34.7707 221.458 62.8162 205.152 69.561C201.724 64.8916 199.448 63.681 196.999 57.945C230.792 31.9459 197.143 6.63864 179.541 20.3876C175.853 23.27 166.375 33.5601 163.898 36.5001L210.712 84.6935C218.808 93.0524 227.479 98.3272 226.183 116.601C225.117 131.503 215.38 140.958 207.63 146.521C202.358 142.86 201.638 138.767 197.46 136.375C199.074 131.302 203.395 130.927 207.111 126.459C221.602 109.021 197.403 92.0436 192.563 86.077C155.975 112.739 177.179 127.987 195.328 146.117C211.634 162.345 230.735 175.575 225.376 199.556C222.467 212.729 210.712 224.431 195.559 226.045C175.45 228.15 166.634 215.755 158.453 207.281L168.017 197.279C173.03 201.66 178.014 208.751 185.706 210.654C196.279 213.305 204.691 208.607 208.235 202.756C219.586 183.992 198.353 170.704 191.237 163.613C176.862 179.091 159.403 196.126 142.838 210.855C134.512 218.263 128.433 227.602 110.255 226.132C97.0026 225.037 85.9687 213.478 81.1287 207.281L91.0103 196.76C112.041 221.117 124.948 210.654 141.081 191.918C136.039 180.85 116.074 160.097 95.5621 180.677C70.8726 205.408 53.8464 231.781 27.2267 225.267C7.63643 220.425 -17.7733 192.898 21.1191 157.099Z"
          fill="#f9f9f9"/>
</svg>
