<svg width="275" height="275" viewBox="0 0 275 275" fill="none" xmlns="http://www.w3.org/2000/svg">
    <path fill-rule="evenodd" clip-rule="evenodd"
          d="M184.916 217.94L190.883 211.901C156.518 166.033 117.049 168.621 82.5401 212.044L89.5856 218.084C100.37 207.875 113.167 188.823 137.251 188.967C161.263 189.111 174.348 207.875 184.916 217.94ZM137.466 125.557C131.931 125.557 127.545 130.014 127.545 135.406C127.545 140.87 131.931 145.256 137.466 145.256C142.858 145.256 147.316 140.87 147.316 135.406C147.316 130.014 142.858 125.557 137.466 125.557ZM55.8678 182.281C58.6716 189.039 55.6521 185.947 61.0441 190.261C109.141 157.19 105.618 115.636 62.3381 83.5714L55.8678 89.251C75.207 112.401 106.121 133.106 66.4361 172.863C60.5408 178.83 63.3446 177.104 55.8678 182.281ZM218.203 89.7542L211.948 82.4211C169.028 121.1 162.845 153.739 212.954 190.908C218.85 186.954 213.745 190.548 218.634 185.875C206.915 171.281 190.02 165.314 189.661 137.563C189.301 112.257 208.641 101.617 218.203 89.7542ZM182.4 55.8207C154.29 93.8521 120.212 94.643 92.2457 55.8207C84.9126 58.6245 87.4289 56.4677 83.8342 61.8597C121.434 106.433 152.42 104.564 189.517 62.0035C185.204 56.8272 188.942 60.4218 182.4 55.8207ZM249.979 84.2904C246.241 77.101 244.012 77.2448 239.195 71.062C243.437 63.01 253.071 58.7683 255.515 49.566C258.75 37.4879 253.071 26.4883 246.6 22.2466C225.248 8.0836 204.687 32.743 198.144 41.6577C212.523 62.6505 233.156 74.7286 247.607 91.911L261.195 105.283C266.371 110.819 272.41 119.23 273.992 129.871C277.011 149.785 266.515 167.255 249.476 177.248L238.836 165.242C246.025 157.406 259.254 148.922 255.875 131.74C253.79 121.243 238.476 109.022 232.653 102.911C149.832 160.353 306.415 185.947 268.959 252.448C248.398 288.97 213.601 273.082 191.314 250.507L203.752 237.638C207.275 240.37 230.496 270.925 250.842 246.913C269.75 224.482 240.13 206.653 233.084 198.097C227.189 201.117 209.575 219.306 203.968 224.985C192.752 236.201 179.74 250.004 168.021 259.71C142.571 280.702 132.362 276.389 109.788 263.017C106.696 261.219 104.324 258.919 102.023 255.971C99.2193 252.377 100.226 254.965 97.422 249.932L108.494 238.214C116.546 244.253 123.735 257.553 140.845 255.324C152.708 253.814 166.799 238.357 170.897 231.168C162.629 218.227 139.839 196.084 118.918 214.992C91.5268 239.723 48.3909 306.081 8.77774 257.481C-10.8491 233.325 5.90201 199.104 25.7445 190.908C29.9143 196.587 32.7182 198.097 35.6658 205.071C-5.45711 236.776 35.522 267.546 56.9462 250.795C61.4035 247.344 72.9783 234.763 75.9978 231.168L18.9866 172.431C9.1372 162.294 -1.3592 155.896 0.150556 133.609C1.44463 115.492 13.307 103.989 22.725 97.2311C29.1235 101.617 30.0581 106.649 35.0906 109.525C33.1495 115.708 27.9013 116.211 23.372 121.603C5.68633 142.811 35.1625 163.517 41.0578 170.778C85.6315 138.282 59.8219 119.734 37.6788 97.6625C17.8363 77.8919 -5.31332 61.7878 1.08517 32.5273C4.67983 16.4951 18.9866 2.26026 37.3912 0.319145C61.9068 -2.26901 72.6189 12.8286 82.612 23.1812L70.9653 35.3311C64.8544 30.011 58.8154 21.3838 49.3974 19.0114C36.5285 15.8481 26.3197 21.5276 22.0061 28.645C8.1307 51.5071 34.0122 67.683 42.7113 76.3821C60.2532 57.4742 81.4617 36.6971 101.664 18.7957C111.801 9.80904 119.206 -1.55008 141.421 0.175359C157.525 1.54133 171.041 15.6324 176.936 23.1812L164.858 35.9781C139.264 6.28628 123.447 19.0114 103.749 41.8734C109.931 55.3174 134.231 80.6238 159.322 55.5331C189.373 25.4099 210.079 -6.65449 242.574 1.25376C266.443 7.14899 297.429 40.6512 249.979 84.2904Z"
          fill="rgba(255,255,255,0.05)"/>
</svg>
