<svg width="24" height="24" viewBox="0 0 24 24" fill="none" xmlns="http://www.w3.org/2000/svg">
    <g clip-path="url(#calrendar)">
        <path d="M0.70208 18.3284H19.0779C19.2427 18.3284 19.402 18.2707 19.5283 18.1656C19.7048 18.0178 23.731 14.5543 23.9765 7.07788H4.24121C3.99665 13.8645 0.288765 17.0544 0.250232 17.0862C0.0243312 17.2771 -0.0587819 17.5888 0.0428476 17.8663C0.143774 18.143 0.406801 18.3284 0.70208 18.3284Z" fill="#B11D48"/>
        <path d="M23.2968 2.85895H19.781V2.15579C19.781 1.76203 19.4716 1.45264 19.0778 1.45264C18.6841 1.45264 18.3747 1.76203 18.3747 2.15579V2.85895H14.812V2.15579C14.812 1.76203 14.5026 1.45264 14.1088 1.45264C13.7151 1.45264 13.4057 1.76203 13.4057 2.15579V2.85895H9.8899V2.15579C9.8899 1.76203 9.58051 1.45264 9.18675 1.45264C8.79298 1.45264 8.48359 1.76203 8.48359 2.15579V2.85895H4.96781C4.57404 2.85895 4.26465 3.16834 4.26465 3.56211V5.67158H23.9999V3.56211C23.9999 3.16834 23.6905 2.85895 23.2968 2.85895Z" fill="#B11D48"/>
        <path d="M20.4313 19.2438C20.0494 19.5617 19.5702 19.7348 19.0778 19.7348H4.26465V21.8442C4.26465 22.2329 4.57915 22.5474 4.96781 22.5474H23.2968C23.6854 22.5474 23.9999 22.2329 23.9999 21.8442V13.962C22.6442 17.288 20.7525 18.9749 20.4313 19.2438Z" fill="#B11D48"/>
    </g>
    <defs>
        <clipPath id="calrendar">
            <rect width="24" height="24" fill="white"/>
        </clipPath>
    </defs>
</svg>